<svg width="80" height="80" viewBox="0 0 80 80" fill="none" xmlns="http://www.w3.org/2000/svg">
<path opacity="0.3" d="M22.3667 33.3334L30.5667 60H37.0334L22.7 33.3334H22.3667Z" fill="#F7F4F3" fill-opacity="0.7"/>
<path opacity="0.3" d="M20.0001 26.6667C21.841 26.6667 23.3334 25.1743 23.3334 23.3333C23.3334 21.4924 21.841 20 20.0001 20C18.1591 20 16.6667 21.4924 16.6667 23.3333C16.6667 25.1743 18.1591 26.6667 20.0001 26.6667Z" fill="#F7F4F3" fill-opacity="0.7"/>
<path d="M66.4333 27.8333L54.4333 33.4333L46.6667 25.6666V20.9999L54.4333 13.2333L66.4333 18.8333C67.7 19.4333 69.1667 18.8666 69.7667 17.6333C70.3667 16.3666 69.8 14.8999 68.5667 14.2999L55.5 8.19995C54.8804 7.90757 54.1853 7.81467 53.5106 7.93408C52.836 8.05349 52.215 8.37932 51.7333 8.86661L45.9333 14.6666C45.6341 14.2568 45.2431 13.9228 44.7916 13.6913C44.3401 13.4597 43.8407 13.3371 43.3333 13.3333C41.5 13.3333 40 14.8333 40 16.6666V19.9999H29.4C28 16.1333 24.3333 13.3333 20 13.3333C14.4667 13.3333 10 17.7999 10 23.3333C10 26.9999 12 30.1666 14.9333 31.9333L23.6 59.9999H20C16.3333 59.9999 13.3333 62.9999 13.3333 66.6666V69.9999H56.6667V66.6666C56.6667 62.9999 53.6667 59.9999 50 59.9999H44.6L28.0333 29.2333C28.6 28.4333 29.0667 27.5999 29.4 26.6666H40V29.9999C40 31.8333 41.5 33.3333 43.3333 33.3333C44.4 33.3333 45.3333 32.7999 45.9333 31.9999L51.7333 37.7999C52.7333 38.7999 54.2333 39.0666 55.5 38.4666L68.5667 32.3666C69.8333 31.7666 70.3667 30.2999 69.7667 29.0333C69.4828 28.433 68.9726 27.9697 68.3478 27.7448C67.7231 27.5199 67.0347 27.5517 66.4333 27.8333ZM20 26.6666C18.1667 26.6666 16.6667 25.1666 16.6667 23.3333C16.6667 21.4999 18.1667 19.9999 20 19.9999C21.8333 19.9999 23.3333 21.4999 23.3333 23.3333C23.3333 25.1666 21.8333 26.6666 20 26.6666ZM37.0333 59.9999H30.5667L22.3667 33.3333H22.7L37.0333 59.9999Z" fill="#F7F4F3" fill-opacity="0.7"/>
</svg>
