<svg width="80" height="80" viewBox="0 0 80 80" fill="none" xmlns="http://www.w3.org/2000/svg">
<path d="M60.0001 50H53.3334V56.6667H60.0001M60.0001 36.6667H53.3334V43.3333H60.0001M66.6668 63.3333H40.0001V56.6667H46.6667V50H40.0001V43.3333H46.6667V36.6667H40.0001V30H66.6668M33.3334 23.3333H26.6667V16.6667H33.3334M33.3334 36.6667H26.6667V30H33.3334M33.3334 50H26.6667V43.3333H33.3334M33.3334 63.3333H26.6667V56.6667H33.3334M20.0001 23.3333H13.3334V16.6667H20.0001M20.0001 36.6667H13.3334V30H20.0001M20.0001 50H13.3334V43.3333H20.0001M20.0001 63.3333H13.3334V56.6667H20.0001M40.0001 23.3333V10H6.66675V70H73.3334V23.3333H40.0001Z" fill="#F7F4F3" fill-opacity="0.7"/>
</svg>
