<svg width="80" height="80" viewBox="0 0 80 80" fill="none" xmlns="http://www.w3.org/2000/svg">
<path d="M25 55C26.3261 55 27.5978 54.4732 28.5355 53.5355C29.4732 52.5979 30 51.3261 30 50C30 48.6739 29.4732 47.4021 28.5355 46.4645C27.5978 45.5268 26.3261 45 25 45C23.6739 45 22.4021 45.5268 21.4644 46.4645C20.5268 47.4021 20 48.6739 20 50C20 51.3261 20.5268 52.5979 21.4644 53.5355C22.4021 54.4732 23.6739 55 25 55ZM45 50C45 51.3261 44.4732 52.5979 43.5355 53.5355C42.5978 54.4732 41.3261 55 40 55C38.6739 55 37.4021 54.4732 36.4644 53.5355C35.5268 52.5979 35 51.3261 35 50C35 48.6739 35.5268 47.4021 36.4644 46.4645C37.4021 45.5268 38.6739 45 40 45C41.3261 45 42.5978 45.5268 43.5355 46.4645C44.4732 47.4021 45 48.6739 45 50ZM55 55C56.3261 55 57.5978 54.4732 58.5355 53.5355C59.4732 52.5979 60 51.3261 60 50C60 48.6739 59.4732 47.4021 58.5355 46.4645C57.5978 45.5268 56.3261 45 55 45C53.6739 45 52.4021 45.5268 51.4644 46.4645C50.5268 47.4021 50 48.6739 50 50C50 51.3261 50.5268 52.5979 51.4644 53.5355C52.4021 54.4732 53.6739 55 55 55ZM15.325 10.2175C16.0287 9.36735 16.9114 8.683 17.9101 8.21326C18.9088 7.74352 19.9988 7.49998 21.1025 7.5H58.9C60.004 7.49961 61.0946 7.74298 62.0937 8.21273C63.0928 8.68248 63.976 9.36703 64.68 10.2175L76.3425 24.3125C79.04 27.5725 76.72 32.5 72.49 32.5H70V64.375C70 65.442 69.7898 66.4985 69.3815 67.4843C68.9732 68.4701 68.3747 69.3658 67.6202 70.1202C66.8657 70.8747 65.9701 71.4732 64.9843 71.8815C63.9985 72.2898 62.942 72.5 61.875 72.5H18.125C15.9701 72.5 13.9035 71.644 12.3797 70.1202C10.856 68.5965 9.99998 66.5299 9.99998 64.375V32.5H7.51498C3.28248 32.5 0.964977 27.5725 3.66248 24.3125L15.325 10.2175ZM15 32.5V64.375C15 66.1 16.4 67.5 18.125 67.5H61.875C63.6 67.5 65 66.1 65 64.375V32.5H15ZM21.1025 12.5C20.7348 12.5 20.3717 12.5811 20.0389 12.7376C19.7062 12.894 19.4121 13.1219 19.1775 13.405L7.51498 27.5H72.4875L60.825 13.405C60.5904 13.1219 60.2963 12.894 59.9635 12.7376C59.6308 12.5811 59.2676 12.5 58.9 12.5H21.1H21.1025Z" fill="#F7F4F3" fill-opacity="0.7"/>
</svg>
