<svg width="80" height="80" viewBox="0 0 80 80" fill="none" xmlns="http://www.w3.org/2000/svg">
<path d="M58.965 53.535L67.915 62.5L58.96 71.4675L62.5 75L75 62.5L62.5 50L58.965 53.535ZM51.035 53.535L42.085 62.5L51.04 71.4675L47.5 75L35 62.5L47.5 50L51.035 53.535ZM55 15H60V35H55V15ZM45 15H50V35H45V15ZM35 35H30C27.2425 35 25 32.7575 25 30V20C25 17.2425 27.2425 15 30 15H35C37.7575 15 40 17.2425 40 20V30C40 32.7575 37.7575 35 35 35ZM30 20V30H35V20H30ZM15 15H20V35H15V15Z" fill="#F7F4F3" fill-opacity="0.7"/>
<path d="M25 70H10C7.2425 70 5 67.7575 5 65V10C5 7.2425 7.2425 5 10 5H65C67.7575 5 70 7.2425 70 10V40H65V10H10V65H25V70Z" fill="#F7F4F3" fill-opacity="0.7"/>
</svg>
