<svg width="56" height="70" viewBox="0 0 56 70" fill="none" xmlns="http://www.w3.org/2000/svg">
<path d="M28 0C20.7092 0.00860118 13.7195 2.90868 8.56409 8.06406C3.4087 13.2195 0.50863 20.2092 0.500029 27.5C0.491297 33.4581 2.43748 39.2545 6.04003 44C6.04003 44 6.79003 44.9875 6.91253 45.13L28 70L49.0975 45.1175C49.2075 44.985 49.96 44 49.96 44L49.9625 43.9925C53.5633 39.249 55.5086 33.4553 55.5 27.5C55.4914 20.2092 52.5914 13.2195 47.436 8.06406C42.2806 2.90868 35.2908 0.00860118 28 0ZM30.5 40H25.5V35H30.5V40ZM30.5 30H25.5V25H30.5V30ZM40.5 40H35.5V20H20.5V40H15.5V20C15.5014 18.6743 16.0286 17.4033 16.966 16.4659C17.9034 15.5285 19.1744 15.0013 20.5 15H35.5C36.8257 15.0013 38.0967 15.5285 39.0341 16.4659C39.9715 17.4033 40.4987 18.6743 40.5 20V40Z" fill="#F7F4F3" fill-opacity="0.7"/>
</svg>
